<svg width="97" height="130" viewBox="0 0 97 130" fill="none" xmlns="http://www.w3.org/2000/svg">
<path d="M4.48688 129.72C3.52688 127.48 2.78021 124.653 2.24688 121.24C1.71354 117.827 1.39354 114.307 1.28688 110.68C1.18021 106.947 1.28688 103.373 1.60688 99.96C2.03354 96.5467 2.62021 93.72 3.36688 91.48C4.96688 90.84 6.51354 89.7733 8.00688 88.28C9.60688 86.68 10.9402 84.1733 12.0069 80.76C13.0735 77.24 13.6069 72.3333 13.6069 66.04C13.6069 59.2133 12.9669 54.0933 11.6869 50.68C10.5135 47.16 9.07354 44.8133 7.36688 43.64C5.76688 42.36 4.32688 41.72 3.04688 41.72C2.08688 39.8 1.39354 37.1867 0.966875 33.88C0.540208 30.5733 0.326875 27.0533 0.326875 23.32C0.433542 19.48 0.753542 15.8 1.28688 12.28C1.82021 8.65333 2.62021 5.55999 3.68688 2.99999C11.5802 3.32 18.6735 3.37333 24.9669 3.15999C31.3669 2.94666 37.7135 2.62666 44.0069 2.2C50.4069 1.77333 57.3402 1.39999 64.8069 1.07999C72.3802 0.653329 81.2869 0.439999 91.5269 0.439999C106.567 0.439999 119.26 1.77333 129.607 4.43999C139.954 6.99999 147.794 11.7467 153.127 18.68C158.567 25.5067 161.287 35.2667 161.287 47.96C161.287 58.9467 159.207 67.7467 155.047 74.36C150.994 80.9733 145.127 85.7733 137.447 88.76C129.767 91.64 120.54 93.08 109.767 93.08C102.94 93.08 97.5002 92.5467 93.4469 91.48C89.3935 90.3067 85.6602 87.7467 82.2469 83.8L78.8869 86.84C81.6602 90.1467 85.0202 92.7067 88.9669 94.52C92.9135 96.2267 97.8202 97.1867 103.687 97.4C104.647 100.387 105.234 103.8 105.447 107.64C105.767 111.48 105.66 115.32 105.127 119.16C104.7 123 103.9 126.467 102.727 129.56C97.5002 129.133 90.2469 128.6 80.9669 127.96C71.7935 127.32 61.2869 127.053 49.4469 127.16C43.4735 127.16 37.6069 127.32 31.8469 127.64C26.0869 127.96 20.8069 128.28 16.0069 128.6C11.3135 129.027 7.47354 129.4 4.48688 129.72ZM78.8869 59.16H88.6469V48.44H78.8869V59.16Z" fill="#FE4185" fill-opacity="0.19"/>
</svg>
