<svg width="95" height="128" viewBox="0 0 95 128" fill="none" xmlns="http://www.w3.org/2000/svg">
<path d="M36.9981 127.72C36.1448 125.48 35.4515 122.653 34.9181 119.24C34.3848 115.827 34.0648 112.307 33.9581 108.68C33.9581 104.947 34.0648 101.373 34.2781 97.96C34.5981 94.5467 35.1315 91.72 35.8781 89.48C39.2915 88.6267 41.9048 86.28 43.7181 82.44C45.5315 78.4933 46.4381 71.8267 46.4381 62.44V50.92H41.3181C42.2781 59.0267 42.1181 67.0267 40.8381 74.92C36.6781 75.7733 32.7315 76.36 28.9981 76.68C25.2648 76.8933 21.3181 76.8933 17.1581 76.68C12.9981 76.36 8.14479 75.7733 2.59813 74.92C1.95813 71.1867 1.47813 66.6 1.15813 61.16C0.838125 55.6133 0.678125 49.8 0.678125 43.72C0.678125 37.5333 0.784792 31.56 0.998125 25.8C1.21146 20.04 1.53146 14.9733 1.95813 10.6C2.38479 6.12 2.86479 2.86666 3.39813 0.839996C9.69146 0.839996 19.1848 1.26666 31.8781 2.12C44.5715 2.86666 60.7315 3.23999 80.3581 3.23999C93.6915 3.23999 105.105 3.02666 114.598 2.59999C124.091 2.17333 132.091 1.79999 138.598 1.48C145.211 1.05333 150.651 0.839996 154.918 0.839996C155.451 3.18666 155.931 6.70666 156.358 11.4C156.785 15.9867 157.105 21.2133 157.318 27.08C157.531 32.84 157.638 38.76 157.638 44.84C157.638 50.8133 157.478 56.4667 157.158 61.8C156.838 67.0267 156.358 71.4 155.718 74.92C150.171 75.7733 145.371 76.36 141.318 76.68C137.265 76.8933 133.318 76.8933 129.478 76.68C125.745 76.36 121.478 75.7733 116.678 74.92C115.398 67.1333 115.238 59.1867 116.198 51.08H111.078V62.44C111.078 68.7333 111.611 73.7467 112.678 77.48C113.851 81.2133 115.345 83.9867 117.158 85.8C118.971 87.6133 120.998 88.84 123.238 89.48C123.985 91.72 124.465 94.5467 124.678 97.96C124.998 101.373 125.105 104.947 124.998 108.68C124.998 112.307 124.731 115.827 124.198 119.24C123.665 122.653 122.971 125.48 122.118 127.72C117.425 127.187 111.505 126.6 104.358 125.96C97.3181 125.427 89.0515 125.16 79.5581 125.16C69.6381 125.16 61.2115 125.427 54.2781 125.96C47.4515 126.6 41.6915 127.187 36.9981 127.72Z" fill="#FE4185" fill-opacity="0.19"/>
</svg>
