<svg width="210" height="210" viewBox="0 0 210 210" fill="none" xmlns="http://www.w3.org/2000/svg">
<g clip-path="url(#clip0_37_908)">
<rect width="210" height="210" rx="16" fill="url(#paint0_linear_37_908)"/>
<path d="M109.804 175.72C108.951 173.48 108.258 170.653 107.724 167.24C107.191 163.827 106.871 160.307 106.764 156.68C106.764 152.947 106.871 149.373 107.084 145.96C107.404 142.547 107.938 139.72 108.684 137.48C112.098 136.733 114.711 135.187 116.524 132.84C118.444 130.387 119.831 127.453 120.684 124.04C121.538 120.52 122.231 116.893 122.764 113.16C123.404 109.213 123.831 105.427 124.044 101.8C124.258 98.0667 123.831 94.92 122.764 92.36C121.804 89.8 119.671 88.2533 116.364 87.72C115.404 85.8 114.711 83.1867 114.284 79.88C113.858 76.5733 113.644 73.0533 113.644 69.32C113.751 65.48 114.071 61.8 114.604 58.28C115.138 54.6533 115.938 51.56 117.004 49C121.378 49.4267 126.764 49.8533 133.164 50.28C139.564 50.6 148.098 50.76 158.764 50.76C166.018 50.76 173.858 50.4933 182.284 49.96C190.818 49.32 199.564 48.7333 208.524 48.2C217.484 47.6667 226.231 47.4 234.764 47.4C242.018 47.4 247.724 48.9467 251.884 52.04C256.151 55.0267 259.351 58.9733 261.484 63.88C263.618 68.7867 265.004 74.0667 265.644 79.72C266.284 85.3733 266.551 90.92 266.444 96.36C266.444 101.693 266.444 106.333 266.444 110.28C266.444 116.573 267.031 121.587 268.204 125.32C269.378 128.947 270.924 131.667 272.844 133.48C274.871 135.293 277.004 136.627 279.244 137.48C279.991 139.72 280.471 142.547 280.684 145.96C281.004 149.373 281.111 152.947 281.004 156.68C281.004 160.307 280.738 163.827 280.204 167.24C279.671 170.653 278.978 173.48 278.124 175.72C273.751 175.293 268.471 174.76 262.284 174.12C256.204 173.48 248.844 173.16 240.204 173.16C231.351 173.16 222.978 173.48 215.084 174.12C207.298 174.76 201.218 175.293 196.844 175.72C196.418 173.48 196.044 170.653 195.724 167.24C195.404 163.827 195.191 160.307 195.084 156.68C194.978 152.947 194.978 149.373 195.084 145.96C195.191 142.547 195.404 139.72 195.724 137.48H200.204V129.48H186.284V137.48H190.764C191.191 139.72 191.458 142.547 191.564 145.96C191.778 149.373 191.831 152.947 191.724 156.68C191.618 160.307 191.404 163.827 191.084 167.24C190.764 170.653 190.284 173.48 189.644 175.72C186.764 175.4 183.671 175.027 180.364 174.6C177.164 174.28 173.378 173.96 169.004 173.64C164.738 173.32 159.458 173.16 153.164 173.16C143.244 173.16 134.711 173.427 127.564 173.96C120.418 174.6 114.498 175.187 109.804 175.72ZM187.404 105.96H198.924V98.44H187.404V105.96Z" fill="#FE4185" fill-opacity="0.19"/>
</g>
<defs>
<linearGradient id="paint0_linear_37_908" x1="105" y1="0" x2="105" y2="210" gradientUnits="userSpaceOnUse">
<stop stop-color="#2A2C31" stop-opacity="0"/>
<stop offset="1" stop-color="#2A2C31"/>
</linearGradient>
<clipPath id="clip0_37_908">
<rect width="210" height="210" rx="16" fill="white"/>
</clipPath>
</defs>
</svg>
