<svg width="210" height="210" viewBox="0 0 210 210" fill="none" xmlns="http://www.w3.org/2000/svg">
<g clip-path="url(#clip0_37_936)">
<rect width="210" height="210" rx="16" fill="url(#paint0_linear_37_936)"/>
<path d="M196.817 178.6C177.297 178.6 161.51 175.773 149.457 170.12C137.404 164.467 128.604 156.573 123.057 146.44C117.617 136.2 114.897 124.36 114.897 110.92C114.897 97.16 117.564 85.4267 122.897 75.72C128.23 66.0133 135.59 58.6 144.977 53.48C154.47 48.36 165.35 45.8 177.617 45.8C186.044 45.8 193.244 46.6533 199.217 48.36C205.19 50.0667 209.777 53 212.977 57.16C216.284 61.32 217.99 67.08 218.097 74.44C219.59 70.3867 220.124 66.28 219.697 62.12C219.377 57.8533 219.004 53.5867 218.577 49.32C223.697 49.2133 229.51 49.1067 236.017 49C242.524 48.7867 248.87 48.5733 255.057 48.36C261.244 48.1467 266.47 48.04 270.737 48.04C271.484 51.3467 272.07 55.5067 272.497 60.52C272.924 65.4267 273.137 70.7067 273.137 76.36C273.244 82.0133 273.137 87.56 272.817 93C272.497 98.44 271.964 103.293 271.217 107.56C267.91 108.093 263.75 108.52 258.737 108.84C253.724 109.16 248.284 109.373 242.417 109.48C236.657 109.48 230.897 109.48 225.137 109.48C219.484 109.373 214.257 109.16 209.457 108.84C204.657 108.52 200.71 108.093 197.617 107.56L197.457 101H188.977V121.64H197.457V114.12C209.83 113.48 221.99 113.16 233.937 113.16C245.99 113.16 258.79 113.48 272.337 114.12C271.804 128.733 268.87 140.84 263.537 150.44C258.31 159.933 250.257 167.027 239.377 171.72C228.497 176.307 214.31 178.6 196.817 178.6Z" fill="#FE4185" fill-opacity="0.19"/>
</g>
<defs>
<linearGradient id="paint0_linear_37_936" x1="105" y1="0" x2="105" y2="210" gradientUnits="userSpaceOnUse">
<stop stop-color="#2A2C31" stop-opacity="0"/>
<stop offset="1" stop-color="#2A2C31"/>
</linearGradient>
<clipPath id="clip0_37_936">
<rect width="210" height="210" rx="16" fill="white"/>
</clipPath>
</defs>
</svg>
