<svg width="210" height="210" viewBox="0 0 210 210" fill="none" xmlns="http://www.w3.org/2000/svg">
<g clip-path="url(#clip0_37_900)">
<rect width="210" height="210" rx="16" fill="url(#paint0_linear_37_900)"/>
<path d="M197.484 176.84C188.951 176.84 181.484 176.68 175.084 176.36C168.684 176.147 162.658 175.88 157.004 175.56C151.351 175.347 145.484 175.187 139.404 175.08C133.324 175.08 126.338 175.24 118.444 175.56C117.591 173.32 116.898 170.547 116.364 167.24C115.831 163.827 115.511 160.253 115.404 156.52C115.404 152.787 115.511 149.267 115.724 145.96C116.044 142.547 116.578 139.72 117.324 137.48C119.564 136.84 121.484 135.667 123.084 133.96C124.684 132.147 125.911 129.373 126.764 125.64C127.618 121.907 128.044 116.84 128.044 110.44C128.044 104.36 127.511 99.72 126.444 96.52C125.484 93.32 124.204 91.08 122.604 89.8C121.004 88.52 119.244 87.72 117.324 87.4C116.258 84.3067 115.511 80.4133 115.084 75.72C114.658 70.92 114.658 66.0667 115.084 61.16C115.618 56.1467 116.578 51.88 117.964 48.36C124.791 49 131.244 49.32 137.324 49.32C143.511 49.32 149.858 49.2133 156.364 49C162.871 48.68 169.964 48.4133 177.644 48.2C185.324 47.88 194.124 47.72 204.044 47.72C226.658 47.72 243.938 52.4133 255.884 61.8C267.938 71.1867 273.964 86.2267 273.964 106.92C273.964 113.853 273.324 120.733 272.044 127.56C270.871 134.28 268.684 140.627 265.484 146.6C262.391 152.467 257.964 157.693 252.204 162.28C246.444 166.76 239.084 170.333 230.124 173C221.271 175.56 210.391 176.84 197.484 176.84ZM190.284 121.64H200.044V101H190.284V121.64Z" fill="#FE4185" fill-opacity="0.19"/>
</g>
<defs>
<linearGradient id="paint0_linear_37_900" x1="105" y1="0" x2="105" y2="210" gradientUnits="userSpaceOnUse">
<stop stop-color="#2A2C31" stop-opacity="0"/>
<stop offset="1" stop-color="#2A2C31"/>
</linearGradient>
<clipPath id="clip0_37_900">
<rect width="210" height="210" rx="16" fill="white"/>
</clipPath>
</defs>
</svg>
