<svg width="210" height="210" viewBox="0 0 210 210" fill="none" xmlns="http://www.w3.org/2000/svg">
<g clip-path="url(#clip0_37_928)">
<rect width="210" height="210" rx="16" fill="url(#paint0_linear_37_928)"/>
<path d="M212.814 176.68C203.427 176.68 194.894 176.52 187.214 176.2C179.64 175.88 172.227 175.507 164.974 175.08C157.72 174.76 150.094 174.6 142.094 174.6C134.094 174.6 125.08 174.92 115.054 175.56C114.2 173.32 113.507 170.547 112.974 167.24C112.547 163.827 112.28 160.253 112.174 156.52C112.067 152.787 112.174 149.267 112.494 145.96C112.814 142.547 113.347 139.72 114.094 137.48C115.8 136.84 117.454 135.773 119.054 134.28C120.654 132.68 121.987 130.173 123.054 126.76C124.12 123.24 124.654 118.333 124.654 112.04C124.654 105.213 124.014 100.093 122.734 96.68C121.56 93.16 120.12 90.8133 118.414 89.64C116.814 88.36 115.374 87.72 114.094 87.72C112.814 84.52 111.96 80.52 111.534 75.72C111.214 70.92 111.267 66.0667 111.694 61.16C112.227 56.1467 113.24 51.9333 114.734 48.52C123.694 48.9467 132.067 49.2133 139.854 49.32C147.747 49.32 155.374 49.2133 162.734 49C170.2 48.7867 177.72 48.5733 185.294 48.36C192.974 48.1467 201.134 48.04 209.774 48.04C218.947 48.04 227.32 48.4667 234.894 49.32C242.467 50.0667 249.027 51.6667 254.574 54.12C260.227 56.5733 264.547 60.2 267.534 65C270.627 69.8 272.174 76.2 272.174 84.2C272.174 89 271.107 93.5333 268.974 97.8C266.84 102.067 263.96 106.013 260.334 109.64C266.627 113.373 270.894 117.587 273.134 122.28C275.48 126.867 276.654 131.827 276.654 137.16C276.654 143.24 275.694 148.733 273.774 153.64C271.854 158.44 268.494 162.6 263.694 166.12C259 169.533 252.494 172.147 244.174 173.96C235.96 175.773 225.507 176.68 212.814 176.68ZM190.574 101H202.414V92.36H190.574V101ZM190.574 131.08H203.694V121.96H190.574V131.08Z" fill="#FE4185" fill-opacity="0.19"/>
</g>
<defs>
<linearGradient id="paint0_linear_37_928" x1="105" y1="0" x2="105" y2="210" gradientUnits="userSpaceOnUse">
<stop stop-color="#2A2C31" stop-opacity="0"/>
<stop offset="1" stop-color="#2A2C31"/>
</linearGradient>
<clipPath id="clip0_37_928">
<rect width="210" height="210" rx="16" fill="white"/>
</clipPath>
</defs>
</svg>
