<svg width="210" height="210" viewBox="0 0 210 210" fill="none" xmlns="http://www.w3.org/2000/svg">
<g clip-path="url(#clip0_37_912)">
<rect width="210" height="210" rx="16" fill="url(#paint0_linear_37_912)"/>
<path d="M188.166 176.84C162.993 176.84 144.006 171.667 131.206 161.32C118.406 150.867 112.006 134.6 112.006 112.52C112.006 98.0133 114.566 85.8533 119.686 76.04C124.913 66.12 132.326 58.6 141.926 53.48C151.526 48.36 162.94 45.8 176.166 45.8C184.486 45.8 191.58 46.6533 197.446 48.36C203.42 49.96 208.006 52.7867 211.206 56.84C214.513 60.7867 216.326 66.3333 216.646 73.48C218.246 69.96 218.833 66.1733 218.406 62.12C217.98 57.96 217.553 53.7467 217.126 49.48C220.966 49.48 225.286 49.4267 230.086 49.32C234.886 49.1067 239.793 48.9467 244.806 48.84C249.926 48.6267 254.726 48.4667 259.206 48.36C263.686 48.2533 267.526 48.2 270.726 48.2C271.473 51.4 272.06 55.5067 272.486 60.52C272.913 65.4267 273.126 70.6533 273.126 76.2C273.233 81.7467 273.126 87.1867 272.806 92.52C272.486 97.7467 271.953 102.333 271.206 106.28C268.54 106.707 264.806 107.027 260.006 107.24C255.313 107.453 249.98 107.613 244.006 107.72C238.14 107.72 232.113 107.72 225.926 107.72C219.74 107.613 213.82 107.453 208.166 107.24C202.62 107.027 197.82 106.707 193.766 106.28V97.8H185.926V130.6H195.366V124.84H189.926C189.393 122.28 189.126 119.933 189.126 117.8C189.126 115.56 189.5 112.947 190.246 109.96C194.62 110.387 200.113 110.867 206.726 111.4C213.446 111.827 221.66 112.04 231.366 112.04C235.633 112.04 240.326 111.987 245.446 111.88C250.566 111.667 255.58 111.453 260.486 111.24C265.393 110.92 269.553 110.6 272.966 110.28C274.033 112.413 274.833 115.347 275.366 119.08C275.9 122.707 276.166 126.653 276.166 130.92C276.273 135.08 276.113 138.973 275.686 142.6C275.26 146.227 274.566 149 273.606 150.92C271.793 151.027 270.193 152.307 268.806 154.76C267.526 157.213 266.513 160.307 265.766 164.04C265.02 167.667 264.646 171.453 264.646 175.4C256.006 174.547 247.313 174.28 238.566 174.6C229.82 174.92 221.233 175.347 212.806 175.88C204.38 176.52 196.166 176.84 188.166 176.84Z" fill="#FE4185" fill-opacity="0.19"/>
</g>
<defs>
<linearGradient id="paint0_linear_37_912" x1="105" y1="0" x2="105" y2="210" gradientUnits="userSpaceOnUse">
<stop stop-color="#2A2C31" stop-opacity="0"/>
<stop offset="1" stop-color="#2A2C31"/>
</linearGradient>
<clipPath id="clip0_37_912">
<rect width="210" height="210" rx="16" fill="white"/>
</clipPath>
</defs>
</svg>
