<svg width="210" height="210" viewBox="0 0 210 210" fill="none" xmlns="http://www.w3.org/2000/svg">
<g clip-path="url(#clip0_37_892)">
<rect width="210" height="210" rx="16" fill="url(#paint0_linear_37_892)"/>
<path d="M110.136 175.72C109.282 173.48 108.589 170.653 108.056 167.24C107.522 163.827 107.202 160.307 107.096 156.68C107.096 152.947 107.202 149.373 107.416 145.96C107.736 142.547 108.269 139.72 109.016 137.48C110.722 136.84 112.376 135.773 113.976 134.28C115.576 132.68 116.909 130.173 117.976 126.76C119.042 123.24 119.576 118.333 119.576 112.04C119.576 105.213 118.936 100.093 117.656 96.68C116.482 93.16 115.042 90.8133 113.336 89.64C111.736 88.36 110.296 87.72 109.016 87.72C108.056 85.8 107.362 83.1867 106.936 79.88C106.509 76.5733 106.296 73.0533 106.296 69.32C106.402 65.48 106.722 61.8 107.256 58.28C107.789 54.6533 108.589 51.56 109.656 49C112.642 49.2133 116.482 49.5333 121.176 49.96C125.869 50.28 130.829 50.6 136.056 50.92C141.389 51.1333 146.402 51.24 151.096 51.24C160.162 51.24 167.789 50.9733 173.976 50.44C180.162 49.9067 185.496 49.4267 189.976 49C190.616 51.3467 191.096 54.3867 191.416 58.12C191.736 61.8533 191.949 65.7467 192.056 69.8C192.162 73.8533 192.109 77.7467 191.896 81.48C191.789 85.1067 191.522 88.1467 191.096 90.6H187.256V97.96H200.056V90.6H196.056C195.736 88.1467 195.522 85.1067 195.416 81.48C195.309 77.7467 195.309 73.8533 195.416 69.8C195.522 65.7467 195.736 61.8533 196.056 58.12C196.376 54.3867 196.749 51.3467 197.176 49C201.549 49.4267 207.042 49.9067 213.656 50.44C220.376 50.9733 228.589 51.24 238.296 51.24C242.562 51.24 247.202 51.1333 252.216 50.92C257.336 50.6 262.242 50.28 266.936 49.96C271.629 49.5333 275.416 49.2133 278.296 49C279.362 51.56 280.162 54.6533 280.696 58.28C281.229 61.8 281.496 65.48 281.496 69.32C281.602 73.0533 281.442 76.5733 281.016 79.88C280.589 83.1867 279.896 85.8 278.936 87.72C277.656 87.72 276.162 88.36 274.456 89.64C272.856 90.8133 271.416 93.16 270.136 96.68C268.962 100.093 268.376 105.213 268.376 112.04C268.376 118.333 268.909 123.24 269.976 126.76C271.042 130.173 272.376 132.68 273.976 134.28C275.576 135.773 277.229 136.84 278.936 137.48C279.682 139.72 280.162 142.547 280.376 145.96C280.696 149.373 280.802 152.947 280.696 156.68C280.696 160.307 280.429 163.827 279.896 167.24C279.362 170.653 278.669 173.48 277.816 175.72C273.442 175.293 268.109 174.76 261.816 174.12C255.629 173.48 247.789 173.16 238.296 173.16C229.762 173.16 221.869 173.48 214.616 174.12C207.362 174.76 201.549 175.293 197.176 175.72C196.749 173.48 196.376 170.6 196.056 167.08C195.736 163.453 195.522 159.72 195.416 155.88C195.309 151.933 195.309 148.2 195.416 144.68C195.522 141.053 195.736 138.12 196.056 135.88H200.056V127.72H187.256V135.88H191.096C191.522 138.12 191.789 141.053 191.896 144.68C192.109 148.2 192.162 151.933 192.056 155.88C191.949 159.72 191.736 163.453 191.416 167.08C191.096 170.6 190.616 173.48 189.976 175.72C186.989 175.4 183.842 175.027 180.536 174.6C177.336 174.28 173.389 173.96 168.696 173.64C164.002 173.32 158.082 173.16 150.936 173.16C142.296 173.16 134.509 173.427 127.576 173.96C120.642 174.6 114.829 175.187 110.136 175.72Z" fill="#FE4185" fill-opacity="0.19"/>
</g>
<defs>
<linearGradient id="paint0_linear_37_892" x1="105" y1="0" x2="105" y2="210" gradientUnits="userSpaceOnUse">
<stop stop-color="#2A2C31" stop-opacity="0"/>
<stop offset="1" stop-color="#2A2C31"/>
</linearGradient>
<clipPath id="clip0_37_892">
<rect width="210" height="210" rx="16" fill="white"/>
</clipPath>
</defs>
</svg>
