<svg width="210" height="210" viewBox="0 0 210 210" fill="none" xmlns="http://www.w3.org/2000/svg">
<g clip-path="url(#clip0_37_944)">
<rect width="210" height="210" rx="16" fill="url(#paint0_linear_37_944)"/>
<path d="M188.175 178.44C167.908 178.44 152.282 174.44 141.295 166.44C130.415 158.44 124.975 147.24 124.975 132.84C124.975 126.973 126.042 121.533 128.175 116.52C130.415 111.507 133.935 107.453 138.735 104.36C143.535 101.16 149.775 99.56 157.455 99.56C160.228 99.56 163.162 99.8267 166.255 100.36C169.348 100.787 172.335 101.96 175.215 103.88C178.202 105.693 180.868 108.627 183.215 112.68C185.668 116.733 187.535 122.28 188.815 129.32L193.135 128.52C192.068 120.52 189.402 113.48 185.135 107.4C180.975 101.213 175.268 96.4133 168.015 93C160.762 89.48 152.015 87.72 141.775 87.72C140.815 85.8 140.068 83.1867 139.535 79.88C139.002 76.5733 138.735 73.0533 138.735 69.32C138.842 65.48 139.162 61.8 139.695 58.28C140.335 54.6533 141.242 51.56 142.415 49C160.228 49.96 174.735 50.6 185.935 50.92C197.242 51.24 206.522 51.4 213.775 51.4C219.642 51.4 225.508 51.2933 231.375 51.08C237.242 50.76 242.682 50.3867 247.695 49.96C252.815 49.5333 256.975 49.2133 260.175 49C261.242 51.56 262.042 54.6533 262.575 58.28C263.108 61.8 263.375 65.48 263.375 69.32C263.375 73.16 263.162 76.7333 262.735 80.04C262.308 83.3467 261.615 85.96 260.655 87.88C259.055 87.88 257.455 88.3067 255.855 89.16C254.255 90.0133 252.922 91.72 251.855 94.28C250.788 96.7333 250.255 100.573 250.255 105.8C250.255 110.813 250.575 115.56 251.215 120.04C251.962 124.52 252.335 128.733 252.335 132.68C252.335 143.56 249.722 152.36 244.495 159.08C239.375 165.8 232.015 170.707 222.415 173.8C212.815 176.893 201.402 178.44 188.175 178.44Z" fill="#FE4185" fill-opacity="0.19"/>
</g>
<defs>
<linearGradient id="paint0_linear_37_944" x1="105" y1="0" x2="105" y2="210" gradientUnits="userSpaceOnUse">
<stop stop-color="#2A2C31" stop-opacity="0"/>
<stop offset="1" stop-color="#2A2C31"/>
</linearGradient>
<clipPath id="clip0_37_944">
<rect width="210" height="210" rx="16" fill="white"/>
</clipPath>
</defs>
</svg>
