<svg width="210" height="210" viewBox="0 0 210 210" fill="none" xmlns="http://www.w3.org/2000/svg">
<g clip-path="url(#clip0_37_952)">
<rect width="210" height="210" rx="16" fill="url(#paint0_linear_37_952)"/>
<path d="M113.573 175.72C112.72 173.48 112.026 170.653 111.493 167.24C110.96 163.827 110.64 160.307 110.533 156.68C110.533 152.947 110.64 149.373 110.853 145.96C111.173 142.547 111.706 139.72 112.453 137.48C114.16 136.84 115.813 135.773 117.413 134.28C119.013 132.68 120.346 130.173 121.413 126.76C122.48 123.24 123.013 118.333 123.013 112.04C123.013 105.213 122.373 100.093 121.093 96.68C119.92 93.16 118.48 90.8133 116.773 89.64C115.173 88.36 113.733 87.72 112.453 87.72C111.493 85.8 110.8 83.1867 110.373 79.88C109.946 76.5733 109.733 73.0533 109.733 69.32C109.84 65.48 110.16 61.8 110.693 58.28C111.226 54.6533 112.026 51.56 113.093 49C116.08 49.2133 119.546 49.5333 123.493 49.96C127.546 50.28 131.653 50.6 135.813 50.92C140.08 51.1333 144.026 51.24 147.653 51.24C155.44 51.24 163.6 51.08 172.133 50.76C180.773 50.3333 190.8 49.7467 202.213 49C200.506 56.04 199.813 61.8 200.133 66.28C200.56 70.76 202.533 74.6533 206.053 77.96C209.573 81.2667 215.013 84.68 222.373 88.2L224.453 84.04C217.733 80.84 212.826 77.8533 209.733 75.08C206.746 72.2 205.146 68.7867 204.933 64.84C204.72 60.7867 205.413 55.5067 207.013 49C211.6 49.1067 216.773 49.5333 222.533 50.28C228.4 51.0267 235.066 51.4 242.533 51.4C249.146 51.4 255.12 51.1333 260.453 50.6C265.893 49.96 270.8 49.4267 275.173 49C276.133 51.56 276.88 54.6533 277.413 58.28C277.946 61.8 278.213 65.48 278.213 69.32C278.213 73.16 278 76.7333 277.573 80.04C277.146 83.3467 276.506 85.96 275.653 87.88C274.373 87.88 272.88 88.52 271.173 89.8C269.573 90.9733 268.186 93.2667 267.013 96.68C265.84 100.093 265.253 105.213 265.253 112.04C265.253 118.333 265.786 123.24 266.853 126.76C267.92 130.173 269.253 132.68 270.853 134.28C272.453 135.773 274.106 136.84 275.813 137.48C276.56 139.72 277.04 142.547 277.253 145.96C277.573 149.373 277.68 152.947 277.573 156.68C277.573 160.307 277.306 163.827 276.773 167.24C276.24 170.653 275.546 173.48 274.693 175.72C270.426 175.187 265.04 174.6 258.533 173.96C252.133 173.427 245.466 173.16 238.533 173.16C229.573 173.16 220.88 173.48 212.453 174.12C204.026 174.76 194.906 175.293 185.093 175.72C186.586 168.68 187.173 162.76 186.853 157.96C186.533 153.16 185.093 148.947 182.533 145.32C179.973 141.587 176.133 138.067 171.013 134.76L168.453 138.6C173.04 141.693 176.4 144.947 178.533 148.36C180.666 151.667 181.786 155.56 181.893 160.04C182.106 164.413 181.52 169.64 180.133 175.72C176.613 175.293 172.293 174.76 167.173 174.12C162.16 173.48 156.186 173.16 149.253 173.16C142.746 173.16 136.24 173.48 129.733 174.12C123.333 174.76 117.946 175.293 113.573 175.72Z" fill="#FE4185" fill-opacity="0.19"/>
</g>
<defs>
<linearGradient id="paint0_linear_37_952" x1="105" y1="0" x2="105" y2="210" gradientUnits="userSpaceOnUse">
<stop stop-color="#2A2C31" stop-opacity="0"/>
<stop offset="1" stop-color="#2A2C31"/>
</linearGradient>
<clipPath id="clip0_37_952">
<rect width="210" height="210" rx="16" fill="white"/>
</clipPath>
</defs>
</svg>
