<svg width="210" height="210" viewBox="0 0 210 210" fill="none" xmlns="http://www.w3.org/2000/svg">
<g clip-path="url(#clip0_37_876)">
<rect width="210" height="210" rx="16" fill="url(#paint0_linear_37_876)"/>
<path d="M117.487 175.72C116.527 173.48 115.78 170.653 115.247 167.24C114.714 163.827 114.394 160.307 114.287 156.68C114.18 152.947 114.287 149.373 114.607 145.96C115.034 142.547 115.62 139.72 116.367 137.48C117.967 136.84 119.514 135.773 121.007 134.28C122.607 132.68 123.94 130.173 125.007 126.76C126.074 123.24 126.607 118.333 126.607 112.04C126.607 105.213 125.967 100.093 124.687 96.68C123.514 93.16 122.074 90.8133 120.367 89.64C118.767 88.36 117.327 87.72 116.047 87.72C115.087 85.8 114.394 83.1867 113.967 79.88C113.54 76.5733 113.327 73.0533 113.327 69.32C113.434 65.48 113.754 61.8 114.287 58.28C114.82 54.6533 115.62 51.56 116.687 49C124.58 49.32 131.674 49.3733 137.967 49.16C144.367 48.9467 150.714 48.6267 157.007 48.2C163.407 47.7733 170.34 47.4 177.807 47.08C185.38 46.6533 194.287 46.44 204.527 46.44C219.567 46.44 232.26 47.7733 242.607 50.44C252.954 53 260.794 57.7467 266.127 64.68C271.567 71.5067 274.287 81.2667 274.287 93.96C274.287 104.947 272.207 113.747 268.047 120.36C263.994 126.973 258.127 131.773 250.447 134.76C242.767 137.64 233.54 139.08 222.767 139.08C215.94 139.08 210.5 138.547 206.447 137.48C202.394 136.307 198.66 133.747 195.247 129.8L191.887 132.84C194.66 136.147 198.02 138.707 201.967 140.52C205.914 142.227 210.82 143.187 216.687 143.4C217.647 146.387 218.234 149.8 218.447 153.64C218.767 157.48 218.66 161.32 218.127 165.16C217.7 169 216.9 172.467 215.727 175.56C210.5 175.133 203.247 174.6 193.967 173.96C184.794 173.32 174.287 173.053 162.447 173.16C156.474 173.16 150.607 173.32 144.847 173.64C139.087 173.96 133.807 174.28 129.007 174.6C124.314 175.027 120.474 175.4 117.487 175.72ZM191.887 105.16H201.647V94.44H191.887V105.16Z" fill="#FE4185" fill-opacity="0.19"/>
</g>
<defs>
<linearGradient id="paint0_linear_37_876" x1="105" y1="0" x2="105" y2="210" gradientUnits="userSpaceOnUse">
<stop stop-color="#2A2C31" stop-opacity="0"/>
<stop offset="1" stop-color="#2A2C31"/>
</linearGradient>
<clipPath id="clip0_37_876">
<rect width="210" height="210" rx="16" fill="white"/>
</clipPath>
</defs>
</svg>
