<svg width="210" height="210" viewBox="0 0 210 210" fill="none" xmlns="http://www.w3.org/2000/svg">
<g clip-path="url(#clip0_37_964)">
<rect width="210" height="210" rx="16" fill="url(#paint0_linear_37_964)"/>
<path d="M114.628 175.72C113.668 173.48 112.921 170.653 112.388 167.24C111.854 163.827 111.534 160.307 111.428 156.68C111.321 152.947 111.428 149.373 111.748 145.96C112.174 142.547 112.761 139.72 113.508 137.48C115.108 136.84 116.654 135.773 118.148 134.28C119.748 132.68 121.081 130.173 122.148 126.76C123.214 123.24 123.748 118.333 123.748 112.04C123.748 105.213 123.108 100.093 121.828 96.68C120.654 93.16 119.214 90.8133 117.508 89.64C115.908 88.36 114.468 87.72 113.188 87.72C112.228 85.8 111.534 83.1867 111.108 79.88C110.681 76.5733 110.468 73.0533 110.468 69.32C110.574 65.48 110.894 61.8 111.428 58.28C111.961 54.6533 112.761 51.56 113.828 49C121.721 49.32 128.814 49.3733 135.108 49.16C141.508 48.9467 147.854 48.6267 154.148 48.2C160.548 47.7733 167.481 47.4 174.948 47.08C182.521 46.6533 191.428 46.44 201.668 46.44C216.708 46.44 229.508 47.7733 240.068 50.44C250.734 53 258.894 57.5867 264.548 64.2C270.201 70.8133 272.974 80.2 272.868 92.36C272.868 98.5467 271.854 104.147 269.828 109.16C267.908 114.067 265.081 118.227 261.348 121.64C263.481 125.907 265.934 129.32 268.708 131.88C271.481 134.44 274.094 136.307 276.548 137.48C277.294 139.72 277.774 142.547 277.988 145.96C278.308 149.373 278.414 152.947 278.308 156.68C278.308 160.307 278.041 163.827 277.508 167.24C276.974 170.653 276.281 173.48 275.428 175.72C273.081 175.4 270.414 175.027 267.428 174.6C264.548 174.28 261.081 173.96 257.028 173.64C252.974 173.32 247.961 173.16 241.988 173.16C233.988 173.16 227.374 173.32 222.148 173.64C217.028 173.96 212.708 174.28 209.188 174.6C205.774 175.027 202.681 175.4 199.908 175.72C201.081 167.08 201.614 159.507 201.508 153C201.508 146.493 200.601 140.787 198.788 135.88C196.974 130.973 193.881 126.6 189.508 122.76V137.48L195.268 137.64C196.228 141.267 196.761 145.48 196.868 150.28C197.081 154.973 196.921 159.613 196.388 164.2C195.961 168.68 195.214 172.467 194.148 175.56C189.668 175.133 183.801 174.6 176.548 173.96C169.294 173.32 161.401 173.053 152.868 173.16C145.401 173.267 138.254 173.587 131.428 174.12C124.601 174.76 119.001 175.293 114.628 175.72ZM188.868 105.64H198.628V94.6H188.868V105.64Z" fill="#FE4185" fill-opacity="0.19"/>
</g>
<defs>
<linearGradient id="paint0_linear_37_964" x1="105" y1="0" x2="105" y2="210" gradientUnits="userSpaceOnUse">
<stop stop-color="#2A2C31" stop-opacity="0"/>
<stop offset="1" stop-color="#2A2C31"/>
</linearGradient>
<clipPath id="clip0_37_964">
<rect width="210" height="210" rx="16" fill="white"/>
</clipPath>
</defs>
</svg>
