<svg width="210" height="210" viewBox="0 0 210 210" fill="none" xmlns="http://www.w3.org/2000/svg">
<g clip-path="url(#clip0_37_968)">
<rect width="210" height="210" rx="16" fill="url(#paint0_linear_37_968)"/>
<path d="M217.073 178.12C201.926 178.12 190.619 176.307 183.153 172.68C175.793 168.947 172.006 162.387 171.793 153C170.406 156.947 169.926 160.627 170.353 164.04C170.886 167.453 171.739 170.813 172.913 174.12C161.499 174.44 152.006 174.76 144.433 175.08C136.859 175.507 129.979 175.667 123.793 175.56C122.193 167.027 121.286 158.6 121.073 150.28C120.966 141.853 121.606 132.947 122.993 123.56C128.859 123.56 134.726 124.147 140.593 125.32C146.459 126.493 152.006 128.147 157.233 130.28C162.459 132.307 166.939 134.813 170.673 137.8L173.873 134.44C170.246 131.56 166.299 129.16 162.033 127.24C157.873 125.213 153.659 123.507 149.393 122.12C143.953 120.2 138.993 117.747 134.513 114.76C130.139 111.773 126.673 108.04 124.113 103.56C121.553 99.08 120.273 93.7467 120.273 87.56C120.273 79.88 122.033 72.9467 125.553 66.76C129.073 60.4667 134.833 55.5067 142.832 51.88C150.939 48.1467 161.819 46.28 175.473 46.28C189.019 46.28 199.366 48.2 206.513 52.04C213.659 55.7733 217.339 62.7067 217.553 72.84C219.046 68.7867 219.526 65 218.993 61.48C218.459 57.96 217.606 54.2267 216.433 50.28C224.113 50.1733 230.513 50.0667 235.633 49.96C240.753 49.7467 245.286 49.5333 249.233 49.32C253.179 49.1067 257.179 49 261.233 49C262.833 56.68 263.686 65 263.793 73.96C264.006 82.8133 263.419 91.88 262.033 101.16C255.953 101.053 250.513 100.52 245.713 99.56C241.019 98.4933 236.646 96.9467 232.593 94.92C228.539 92.8933 224.379 90.3867 220.113 87.4L217.233 91.08C221.286 94.0667 225.446 96.6267 229.713 98.76C233.979 100.787 237.979 102.653 241.713 104.36C247.259 106.813 251.953 109.533 255.793 112.52C259.633 115.507 262.566 119.133 264.593 123.4C266.726 127.667 267.793 133 267.793 139.4C267.793 148.253 266.246 155.293 263.153 160.52C260.166 165.747 256.166 169.64 251.153 172.2C246.139 174.653 240.646 176.253 234.673 177C228.806 177.747 222.939 178.12 217.073 178.12Z" fill="#FE4185" fill-opacity="0.19"/>
</g>
<defs>
<linearGradient id="paint0_linear_37_968" x1="105" y1="0" x2="105" y2="210" gradientUnits="userSpaceOnUse">
<stop stop-color="#2A2C31" stop-opacity="0"/>
<stop offset="1" stop-color="#2A2C31"/>
</linearGradient>
<clipPath id="clip0_37_968">
<rect width="210" height="210" rx="16" fill="white"/>
</clipPath>
</defs>
</svg>
