<svg width="210" height="210" viewBox="0 0 210 210" fill="none" xmlns="http://www.w3.org/2000/svg">
<g clip-path="url(#clip0_37_924)">
<rect width="210" height="210" rx="16" fill="url(#paint0_linear_37_924)"/>
<path d="M151.998 175.72C151.145 173.48 150.451 170.653 149.918 167.24C149.385 163.827 149.065 160.307 148.958 156.68C148.958 152.947 149.065 149.373 149.278 145.96C149.598 142.547 150.131 139.72 150.878 137.48C154.291 136.627 156.905 134.28 158.718 130.44C160.531 126.493 161.438 119.827 161.438 110.44V98.92H156.318C157.278 107.027 157.118 115.027 155.838 122.92C151.678 123.773 147.731 124.36 143.998 124.68C140.265 124.893 136.318 124.893 132.158 124.68C127.998 124.36 123.145 123.773 117.598 122.92C116.958 119.187 116.478 114.6 116.158 109.16C115.838 103.613 115.678 97.8 115.678 91.72C115.678 85.5333 115.785 79.56 115.998 73.8C116.211 68.04 116.531 62.9733 116.958 58.6C117.385 54.12 117.865 50.8667 118.398 48.84C124.691 48.84 134.185 49.2667 146.878 50.12C159.571 50.8667 175.731 51.24 195.358 51.24C208.691 51.24 220.105 51.0267 229.598 50.6C239.091 50.1733 247.091 49.8 253.598 49.48C260.211 49.0533 265.651 48.84 269.918 48.84C270.451 51.1867 270.931 54.7067 271.358 59.4C271.785 63.9867 272.105 69.2133 272.318 75.08C272.531 80.84 272.638 86.76 272.638 92.84C272.638 98.8133 272.478 104.467 272.158 109.8C271.838 115.027 271.358 119.4 270.718 122.92C265.171 123.773 260.371 124.36 256.318 124.68C252.265 124.893 248.318 124.893 244.478 124.68C240.745 124.36 236.478 123.773 231.678 122.92C230.398 115.133 230.238 107.187 231.198 99.08H226.078V110.44C226.078 116.733 226.611 121.747 227.678 125.48C228.851 129.213 230.345 131.987 232.158 133.8C233.971 135.613 235.998 136.84 238.238 137.48C238.985 139.72 239.465 142.547 239.678 145.96C239.998 149.373 240.105 152.947 239.998 156.68C239.998 160.307 239.731 163.827 239.198 167.24C238.665 170.653 237.971 173.48 237.118 175.72C232.425 175.187 226.505 174.6 219.358 173.96C212.318 173.427 204.051 173.16 194.558 173.16C184.638 173.16 176.211 173.427 169.278 173.96C162.451 174.6 156.691 175.187 151.998 175.72Z" fill="#FE4185" fill-opacity="0.19"/>
</g>
<defs>
<linearGradient id="paint0_linear_37_924" x1="105" y1="0" x2="105" y2="210" gradientUnits="userSpaceOnUse">
<stop stop-color="#2A2C31" stop-opacity="0"/>
<stop offset="1" stop-color="#2A2C31"/>
</linearGradient>
<clipPath id="clip0_37_924">
<rect width="210" height="210" rx="16" fill="white"/>
</clipPath>
</defs>
</svg>
