<svg width="210" height="210" viewBox="0 0 210 210" fill="none" xmlns="http://www.w3.org/2000/svg">
<g clip-path="url(#clip0_37_884)">
<rect width="210" height="210" rx="16" fill="url(#paint0_linear_37_884)"/>
<path d="M193.686 178.6C180.993 178.6 169.633 177.587 159.606 175.56C149.686 173.533 141.58 169.96 135.286 164.84C128.993 159.613 124.993 152.307 123.286 142.92C122.22 136.733 121.9 130.813 122.326 125.16C122.753 119.507 122.966 113.533 122.966 107.24C122.966 102.013 122.433 98.0133 121.366 95.24C120.406 92.4667 119.126 90.5467 117.526 89.48C115.926 88.3067 114.22 87.72 112.406 87.72C111.446 85.8 110.753 83.1867 110.326 79.88C109.9 76.5733 109.686 73.0533 109.686 69.32C109.793 65.48 110.113 61.8 110.646 58.28C111.18 54.6533 111.98 51.56 113.046 49C116.033 49.2133 119.713 49.5333 124.086 49.96C128.566 50.28 133.366 50.6 138.486 50.92C143.713 51.1333 148.833 51.24 153.846 51.24C161.1 51.24 167.82 50.9733 174.006 50.44C180.193 49.9067 185.526 49.4267 190.006 49C191.286 54.0133 191.98 60.04 192.086 67.08C192.3 74.0133 191.82 81.8533 190.646 90.6V121.96H197.366V90.6C195.98 81.8533 195.446 74.0133 195.766 67.08C196.086 60.04 196.94 54.0133 198.326 49C202.806 49.4267 208.033 49.9067 214.006 50.44C220.086 50.9733 227.126 51.24 235.126 51.24C240.14 51.24 245.206 51.1333 250.326 50.92C255.553 50.6 260.406 50.28 264.886 49.96C269.366 49.5333 273.046 49.2133 275.926 49C276.993 51.56 277.793 54.6533 278.326 58.28C278.86 61.8 279.126 65.48 279.126 69.32C279.233 73.0533 279.073 76.5733 278.646 79.88C278.22 83.1867 277.526 85.8 276.566 87.72C273.9 87.8267 271.446 89 269.206 91.24C267.073 93.48 266.006 97.7467 266.006 104.04C266.006 110.76 266.22 117.213 266.646 123.4C267.073 129.48 266.7 135.24 265.526 140.68C263.393 150.493 259.393 158.173 253.526 163.72C247.766 169.267 239.98 173.107 230.166 175.24C220.353 177.48 208.193 178.6 193.686 178.6Z" fill="#FE4185" fill-opacity="0.19"/>
</g>
<defs>
<linearGradient id="paint0_linear_37_884" x1="105" y1="0" x2="105" y2="210" gradientUnits="userSpaceOnUse">
<stop stop-color="#2A2C31" stop-opacity="0"/>
<stop offset="1" stop-color="#2A2C31"/>
</linearGradient>
<clipPath id="clip0_37_884">
<rect width="210" height="210" rx="16" fill="white"/>
</clipPath>
</defs>
</svg>
