<svg width="210" height="210" viewBox="0 0 210 210" fill="none" xmlns="http://www.w3.org/2000/svg">
<g clip-path="url(#clip0_37_916)">
<rect width="210" height="210" rx="16" fill="url(#paint0_linear_37_916)"/>
<path d="M133.525 176.04C127.445 176.04 122.538 174.227 118.805 170.6C115.178 166.867 112.352 161.853 110.325 155.56C108.405 149.16 106.965 141.853 106.005 133.64C105.045 125.32 104.245 116.52 103.605 107.24C103.285 102.013 102.325 98.0133 100.725 95.24C99.2317 92.4667 97.5783 90.5467 95.765 89.48C93.9517 88.3067 92.405 87.72 91.125 87.72C90.165 85.8 89.4717 83.1867 89.045 79.88C88.6183 76.5733 88.405 73.0533 88.405 69.32C88.5117 65.48 88.8317 61.8 89.365 58.28C89.8983 54.6533 90.6983 51.56 91.765 49C94.005 49.2133 96.9917 49.48 100.725 49.8C104.458 50.0133 108.512 50.2267 112.885 50.44C117.365 50.6533 121.845 50.8667 126.325 51.08C130.805 51.1867 134.858 51.24 138.485 51.24C142.325 51.24 146.432 51.1333 150.805 50.92C155.178 50.6 159.392 50.28 163.445 49.96C167.605 49.5333 171.125 49.2133 174.005 49C172.725 53.48 171.872 58.44 171.445 63.88C171.125 69.32 171.232 74.8667 171.765 80.52C172.405 86.1733 173.472 91.5067 174.965 96.52C176.565 101.533 178.645 105.8 181.205 109.32V90.6H177.525C176.245 82.0667 175.765 74.28 176.085 67.24C176.512 60.0933 177.418 54.0133 178.805 49C180.618 49.4267 183.285 49.8 186.805 50.12C190.432 50.44 194.538 50.7067 199.125 50.92C203.712 51.0267 208.298 51.08 212.885 51.08C215.658 51.08 218.965 51.0267 222.805 50.92C226.752 50.7067 230.538 50.44 234.165 50.12C237.898 49.8 240.832 49.4267 242.965 49C242.325 52.3067 241.738 56.04 241.205 60.2C240.778 64.2533 240.672 68.4667 240.885 72.84C241.205 77.1067 242.112 81.2667 243.605 85.32C245.205 89.3733 247.712 93 251.125 96.2L254.485 93C249.258 88.3067 246.325 82.1733 245.685 74.6C245.152 67.0267 245.792 58.4933 247.605 49C251.552 49.64 255.552 50.12 259.605 50.44C263.765 50.6533 267.818 50.76 271.765 50.76C276.458 50.76 280.938 50.6 285.205 50.28C289.472 49.96 293.152 49.5333 296.245 49C297.312 51.56 298.112 54.6533 298.645 58.28C299.178 61.8 299.445 65.48 299.445 69.32C299.552 73.0533 299.392 76.5733 298.965 79.88C298.538 83.1867 297.845 85.8 296.885 87.72C294.858 87.8267 292.672 89 290.325 91.24C288.085 93.48 286.645 97.7467 286.005 104.04C285.045 113.747 284.032 122.973 282.965 131.72C281.898 140.36 280.405 147.987 278.485 154.6C276.672 161.213 273.952 166.44 270.325 170.28C266.805 174.013 262.005 175.88 255.925 175.88C252.832 175.88 249.045 175.72 244.565 175.4C240.085 175.187 235.232 174.867 230.005 174.44C224.885 174.013 219.658 173.64 214.325 173.32C208.992 173.107 203.978 173 199.285 173C198.538 170.653 197.845 167.72 197.205 164.2C196.672 160.68 196.245 156.947 195.925 153C195.712 148.947 195.605 145.16 195.605 141.64C194.112 145.267 193.045 149.053 192.405 153C191.872 156.947 191.658 160.68 191.765 164.2C191.978 167.72 192.458 170.707 193.205 173.16C176.778 173.48 163.392 174.013 153.045 174.76C142.698 175.613 136.192 176.04 133.525 176.04Z" fill="#FE4185" fill-opacity="0.19"/>
</g>
<defs>
<linearGradient id="paint0_linear_37_916" x1="105" y1="0" x2="105" y2="210" gradientUnits="userSpaceOnUse">
<stop stop-color="#2A2C31" stop-opacity="0"/>
<stop offset="1" stop-color="#2A2C31"/>
</linearGradient>
<clipPath id="clip0_37_916">
<rect width="210" height="210" rx="16" fill="white"/>
</clipPath>
</defs>
</svg>
